<?xml version="1.0" encoding="UTF-8"?><svg id="_レイヤー_4" xmlns="http://www.w3.org/2000/svg" viewBox="0 0 104.89 58.03"><circle cx="50.01" cy="13.92" r="3.88" fill="#e1e2de" stroke="#333" stroke-linecap="round" stroke-linejoin="round" stroke-width="2"/><circle cx="65.59" cy="14.05" r="3.88" fill="#e1e2de" stroke="#333" stroke-linecap="round" stroke-linejoin="round" stroke-width="2"/><path d="M44.99,26.24c7.04-7.29,18.65-7.49,25.94-.45s7.49,18.65.45,25.94l-26.39-25.49Z" fill="#e1e2de" stroke="#333" stroke-linecap="round" stroke-linejoin="round" stroke-width="2"/><path d="M70.61,25.61c-7.27-7.06-18.88-6.88-25.94.39-7.06,7.27-6.88,18.88.39,25.94l25.55-26.33Z" fill="#e1e2de" stroke="#333" stroke-linecap="round" stroke-linejoin="round" stroke-width="2"/><line x1="58.57" y1="39.23" x2="45.04" y2="25.97" fill="none" stroke="#333" stroke-linecap="round" stroke-linejoin="round" stroke-width="2"/><path d="M22.11,48.16c7.25-4.13,9.77-13.35,5.65-20.59-4.13-7.25-13.35-9.77-20.59-5.65l14.94,26.24Z" fill="#e1e2de" stroke="#333" stroke-linecap="round" stroke-linejoin="round" stroke-width="2"/><path d="M22,21.92c7.25,4.13,9.77,13.35,5.65,20.59-4.13,7.25-13.35,9.77-20.59,5.65l14.94-26.24Z" fill="#e1e2de" stroke="#333" stroke-linecap="round" stroke-linejoin="round" stroke-width="2"/><line x1="14.86" y1="34.53" x2="21.82" y2="47.46" fill="none" stroke="#333" stroke-linecap="round" stroke-linejoin="round" stroke-width="2"/><path d="M82.83,23.05c.8,4.69,5.25,7.85,9.95,7.05,4.69-.8,7.85-5.25,7.05-9.95l-17,2.89Z" fill="#e1e2de" stroke="#333" stroke-linecap="round" stroke-linejoin="round" stroke-width="2"/><path d="M96.94,28.12c-3.63,3.08-9.07,2.64-12.15-.99-3.08-3.63-2.64-9.07.99-12.15l11.16,13.14Z" fill="#e1e2de" stroke="#333" stroke-linecap="round" stroke-linejoin="round" stroke-width="2"/><line x1="91.56" y1="21.82" x2="83.26" y2="23.03" fill="none" stroke="#333" stroke-linecap="round" stroke-linejoin="round" stroke-width="2"/></svg>