<?xml version="1.0" encoding="UTF-8"?><svg id="_レイヤー_1" xmlns="http://www.w3.org/2000/svg" viewBox="0 0 104.89 58.03"><circle cx="50.51" cy="16.92" r="3.88" fill="#e1e2de" stroke="#333" stroke-linecap="round" stroke-linejoin="round" stroke-width="2"/><circle cx="66.09" cy="17.05" r="3.88" fill="#e1e2de" stroke="#333" stroke-linecap="round" stroke-linejoin="round" stroke-width="2"/><path d="M42.51,32.15c5.29-8.64,16.58-11.36,25.22-6.08s11.36,16.58,6.08,25.22l-31.3-19.14Z" fill="#e1e2de" stroke="#333" stroke-linecap="round" stroke-linejoin="round" stroke-width="2"/><path d="M73.56,32.15c-5.29-8.64-16.58-11.36-25.22-6.08-8.64,5.29-11.36,16.58-6.08,25.22l31.3-19.14Z" fill="#e1e2de" stroke="#333" stroke-linecap="round" stroke-linejoin="round" stroke-width="2"/><path d="M22.11,48.16c7.25-4.13,9.77-13.35,5.65-20.59-4.13-7.25-13.35-9.77-20.59-5.65l14.94,26.24Z" fill="#e1e2de" stroke="#333" stroke-linecap="round" stroke-linejoin="round" stroke-width="2"/><path d="M22,21.92c7.25,4.13,9.77,13.35,5.65,20.59s-13.35,9.77-20.59,5.65l14.94-26.24Z" fill="#e1e2de" stroke="#333" stroke-linecap="round" stroke-linejoin="round" stroke-width="2"/><line x1="14.86" y1="34.53" x2="21.82" y2="47.46" fill="none" stroke="#333" stroke-linecap="round" stroke-linejoin="round" stroke-width="2"/><line x1="58.37" y1="41.27" x2="43.68" y2="31.18" fill="none" stroke="#333" stroke-linecap="round" stroke-linejoin="round" stroke-width="2"/><path d="M82.83,23.05c.8,4.69,5.25,7.85,9.95,7.05,4.69-.8,7.85-5.25,7.05-9.95l-17,2.89Z" fill="#e1e2de" stroke="#333" stroke-linecap="round" stroke-linejoin="round" stroke-width="2"/><path d="M96.94,28.12c-3.63,3.08-9.07,2.64-12.15-.99-3.08-3.63-2.64-9.07.99-12.15l11.16,13.14Z" fill="#e1e2de" stroke="#333" stroke-linecap="round" stroke-linejoin="round" stroke-width="2"/><line x1="91.56" y1="21.82" x2="83.26" y2="23.03" fill="none" stroke="#333" stroke-linecap="round" stroke-linejoin="round" stroke-width="2"/></svg>