<?xml version="1.0" encoding="UTF-8"?><svg id="_レイヤー_3のコピー" xmlns="http://www.w3.org/2000/svg" viewBox="0 0 507.08 62.53"><circle cx="77.35" cy="18.39" r="3.88" fill="none" stroke="#333" stroke-linecap="round" stroke-linejoin="round" stroke-width="2.5"/><circle cx="92.93" cy="18.53" r="3.88" fill="none" stroke="#333" stroke-linecap="round" stroke-linejoin="round" stroke-width="2.5"/><path d="M70.35,33.62c5.29-8.64,16.58-11.36,25.22-6.08,8.64,5.29,11.36,16.58,6.08,25.22l-31.3-19.14Z" fill="none" stroke="#333" stroke-linecap="round" stroke-linejoin="round" stroke-width="2.5"/><path d="M101.4,33.62c-5.29-8.64-16.58-11.36-25.22-6.08-8.64,5.29-11.36,16.58-6.08,25.22l31.3-19.14Z" fill="none" stroke="#333" stroke-linecap="round" stroke-linejoin="round" stroke-width="2.5"/><path d="M33.34,28.25c5.06,8.89,16.38,11.99,25.27,6.93,8.89-5.06,11.99-16.38,6.93-25.27l-32.2,18.34Z" fill="none" stroke="#333" stroke-linecap="round" stroke-linejoin="round" stroke-width="2.5"/><path d="M65.55,28.11c-5.06,8.89-16.38,11.99-25.27,6.93s-11.99-16.38-6.93-25.27l32.2,18.34Z" fill="none" stroke="#333" stroke-linecap="round" stroke-linejoin="round" stroke-width="2.5"/><path d="M104.67,30.54c2.92,5.12,9.43,6.9,14.55,3.99,5.12-2.92,6.9-9.43,3.99-14.55l-18.53,10.56Z" fill="none" stroke="#333" stroke-linecap="round" stroke-linejoin="round" stroke-width="2.5"/><path d="M123.21,30.46c-2.92,5.12-9.43,6.9-14.55,3.99-5.12-2.92-6.9-9.43-3.99-14.55l18.53,10.56Z" fill="none" stroke="#333" stroke-linecap="round" stroke-linejoin="round" stroke-width="2.5"/><path d="M174.11,29.71c0,5.18-.38,10.06-1.09,14.61l-6.98-.83c.11-.71.22-1.43.3-2.14l-3.15-.26c.08-.86.45-1.54,1.09-2.07.68-.53,1.39-.75,2.22-.68h.23c.19-1.69.3-3.87.34-6.46h-3.79c-1.16,5.6-3.68,10.59-7.55,14.98l-6.65-5.56,1.13-.79c2.18-2.7,3.76-5.56,4.66-8.64h-.68c-1.28,0-2.37-.38-3.19-1.13-.83-.79-1.28-1.8-1.35-3.12l-.26-4.06h6.76c.04-1.5.08-3.34.04-5.48h8c.04,2.07.04,3.87,0,5.48h9.84c.08,2.33.11,4.39.11,6.12Z" fill="#333"/><path d="M195.11,45.15v-7.29h22.31v7.29h-22.31ZM201.91,31.33c-1.35.04-2.4-.38-3.27-1.24-.83-.86-1.31-1.95-1.35-3.27l-.26-4.66,18.03-.19.11,9.2-13.26.15Z" fill="#333"/><path d="M261.25,29.71c0,5.18-.38,10.06-1.09,14.61l-6.98-.83c.11-.71.22-1.43.3-2.14l-3.15-.26c.08-.86.45-1.54,1.09-2.07.68-.53,1.39-.75,2.22-.68h.23c.19-1.69.3-3.87.34-6.46h-3.79c-1.16,5.6-3.68,10.59-7.55,14.98l-6.65-5.56,1.13-.79c2.18-2.7,3.76-5.56,4.66-8.64h-.68c-1.28,0-2.37-.38-3.19-1.13-.83-.79-1.28-1.8-1.35-3.12l-.26-4.06h6.76c.04-1.5.08-3.34.04-5.48h8c.04,2.07.04,3.87,0,5.48h9.84c.08,2.33.11,4.39.11,6.12Z" fill="#333"/><path d="M282.25,45.15v-7.29h22.31v7.29h-22.31ZM289.04,31.33c-1.35.04-2.4-.38-3.27-1.24-.83-.86-1.31-1.95-1.35-3.27l-.26-4.66,18.02-.19.11,9.2-13.26.15Z" fill="#333"/><path d="M348.06,35.84c-1.31,4.81-3.87,9.01-7.66,12.54l-5.37-5.59,1.43-.86c3.3-3.57,5.11-7.44,5.52-11.6h-10.55l-.23,4.32-7.1-.41.71-13.03,24.56.04c.11,6.2-.34,11.04-1.31,14.61Z" fill="#333"/><path d="M365.5,38.29v-7.71h25.57v7.71h-25.57Z" fill="#333"/><path d="M430.48,36.39c-1.39,4.39-3.94,8.6-7.58,12.58l-5.97-5.37,1.39-.86c1.69-1.95,2.97-3.87,3.91-5.75.94-1.84,1.65-4.02,2.14-6.46l-6.27-.26c-.83,2.29-1.77,4.32-2.78,6.08l-7.29-4.09.9-1.09c1.62-3.3,2.78-7.13,3.57-11.57-.94-.45-1.43-1.24-1.43-2.33,0-.19.04-.38.04-.56l.15-1.16,9.54,1.65c-.11,1.65-.34,3.34-.68,5.11l12.17.68c-.19,5.67-.79,10.1-1.8,13.41Z" fill="#333"/><path d="M472.25,47.29l-6.42-4.99c-2.37,2.4-5.11,4.54-8.26,6.35l-4.54-7.4,1.58-.34c4.88-3.04,8.22-6.8,10.03-11.23l-5.75.08c-1.24.04-2.33-.38-3.19-1.24-.9-.83-1.39-1.92-1.46-3.19l-.26-4.62,19.64-.19.08,7.55c-.71,3.19-1.88,6.12-3.53,8.79l6.38,4.84-4.28,5.6Z" fill="#333"/></svg>