<?xml version="1.0" encoding="UTF-8"?><svg id="_レイヤー_1" xmlns="http://www.w3.org/2000/svg" viewBox="0 0 40 38"><path d="M24.78,2.7l.07.06,1.73.03c1.53.03,2.99.28,4.41.89,2.28.98,3.97,2.91,4.69,5.28.35,1.15.51,2.27.54,3.47l.03,1.72.06.07v9.57c-.09.58-.06,1.18-.09,1.8-.07,1.53-.27,3-.89,4.42-1.01,2.33-2.99,4.04-5.43,4.73-1.12.32-2.21.45-3.38.5l-1.78.06h-9.49s-1.78-.06-1.78-.06c-1.18-.04-2.3-.18-3.42-.51-2.81-.81-4.96-2.96-5.77-5.77-.33-1.13-.47-2.24-.51-3.42l-.06-1.78v-9.49s.06-1.78.06-1.78c.04-1.18.18-2.3.51-3.42.8-2.78,2.91-4.9,5.67-5.74,1.15-.35,2.27-.48,3.47-.54.61-.03,1.22,0,1.8-.08h9.57ZM22.1,32.37c1.74,0,3.38,0,5.08-.14,3.66-.28,5.73-2.29,6.02-5.97.14-1.74.14-3.42.14-5.17v-4.17c0-1.74,0-3.43-.14-5.17-.29-3.68-2.36-5.69-6.02-5.97-1.74-.13-3.42-.14-5.16-.14h-4.12c-1.72,0-3.39,0-5.11.14-3.66.28-5.73,2.3-6.02,5.97-.14,1.74-.14,3.42-.14,5.17v4.17c0,1.74,0,3.43.14,5.17.29,3.68,2.35,5.69,6.02,5.97,1.72.13,3.39.14,5.11.14h4.2Z" fill="#333"/><path d="M28.37,19.01c0,4.63-3.75,8.38-8.38,8.38s-8.38-3.75-8.38-8.38,3.75-8.38,8.38-8.38,8.38,3.75,8.38,8.38ZM25.41,19.01c0-3-2.43-5.43-5.43-5.43s-5.43,2.43-5.43,5.43,2.43,5.43,5.43,5.43,5.43-2.43,5.43-5.43Z" fill="#333"/><circle cx="28.69" cy="10.31" r="1.97" fill="#333"/></svg>