<?xml version="1.0" encoding="UTF-8"?><svg id="_レイヤー_3" xmlns="http://www.w3.org/2000/svg" viewBox="0 0 17.44 61.57"><path d="M11.46,18.22c-.59.55-1.32.83-2.17.83-1.13.02-1.96-.36-2.51-1.13-.62-.91-.91-2.36-.87-4.38,0-.34,0-.76.04-1.28l-.89.11c-.77.08-1.17-.25-1.28-1.02l-.11-.77,2.34-.28c.04-.68.06-1.4.11-2.13h-1.66c-.72,0-1.08-.36-1.08-1.08v-.83l2.87-.02.21-3.44.81.04c.77.04,1.1.43,1.06,1.15-.04.51-.11,1.25-.19,2.23h2.91l.02,1.93h-3.06c0,.19-.04.83-.13,1.93l2.66-.3.23,1.89-2.98.34c-.04.98-.06,1.53-.06,1.64,0,1.17.13,2.02.34,2.55.23.55.64.85,1.21.87,1.08,0,1.72-1,1.93-3l.49.15c.66.17.98.59.91,1.25-.11,1.19-.49,2.08-1.17,2.72Z" fill="#fff"/><path d="M8.46,38.02c-1.47.02-2.59-.3-3.38-.94-.79-.64-1.17-1.53-1.17-2.72,0-.98.53-2.08,1.57-3.29l-1.55-7.21.83-.17c.08-.02.19-.04.28-.04.55,0,.87.3,1,.87l1.06,4.93c.89-.81,2.04-1.7,3.4-2.68l.6.66c.15.21.21.45.21.68,0,.34-.15.62-.43.81-1.81,1.32-3.06,2.34-3.8,3.08-.89.89-1.34,1.68-1.32,2.36,0,1.23.89,1.83,2.72,1.79.98,0,2.1-.23,3.34-.66l.49,1.85c-1.47.45-2.74.66-3.85.68ZM12.17,27.7l-.55-2.4.4-.08c.09-.04.17-.04.26-.04.36,0,.6.21.7.62l.36,1.64-1.17.28ZM14.46,27.19l-.59-2.4.42-.11c.11-.02.17-.04.26-.04.36,0,.57.21.68.64l.4,1.64-1.17.28Z" fill="#fff"/><path d="M11.16,57.57c-.7.76-1.62,1.19-2.74,1.25-1,.04-1.83-.11-2.44-.49-.79-.45-1.17-1.17-1.17-2.15,0-.64.21-1.17.68-1.57.45-.42.98-.64,1.57-.68.72-.02,1.3.21,1.72.7.45.47.66,1.11.68,1.85.62-.47.94-1.19.94-2.17,0-.72-.21-1.3-.62-1.74-.45-.51-1.1-.74-1.96-.72-.47,0-1.04.11-1.68.34l-1.11,1.55-1.59-1.02,4.27-6.25-2.64.21c-.28.04-.53-.04-.77-.21-.23-.19-.36-.45-.38-.76l-.08-.83,5.17-.47.55-.85.68.4c.38.23.57.55.57.96,0,.23-.06.45-.21.66l-2.91,4.36c1.47-.06,2.61.36,3.44,1.25.83.89,1.21,2.02,1.15,3.4-.04,1.21-.42,2.21-1.13,2.98ZM7.63,56.02c-.15-.28-.38-.42-.7-.42-.38.02-.57.21-.55.57.02.6.49.87,1.42.87.04-.38-.02-.72-.17-1.02Z" fill="#fff"/></svg>