<?xml version="1.0" encoding="UTF-8"?><svg id="_レイヤー_3" xmlns="http://www.w3.org/2000/svg" viewBox="0 0 178.06 25.18"><path d="M9.19,7.92v-3.17h.84c.3,0,.56.12.77.34.24.22.34.5.34.84v1.99h-1.96ZM9.19,22.03v-12.77h1.96v12.77h-1.96Z" fill="#333"/><path d="M19.46,15.37c-.34,0-.62-.12-.86-.36-.24-.24-.36-.53-.36-.89v-.67h7.13v1.92h-5.9Z" fill="#333"/><path d="M76.08,14.78c-.24.38-.58.58-1.01.58-.24,0-.46-.05-.65-.14-1.58-.79-3.02-1.97-4.32-3.6l-4.87.1c-.98,1.61-2.26,2.9-3.77,3.94-.24.17-.5.24-.82.24-.46,0-.79-.14-.98-.46l-.55-.65c1.44-1.01,2.59-2.02,3.46-3l-1.8.05c-.34.02-.62-.1-.86-.34-.24-.24-.36-.53-.38-.86l-.02-.82,4.54-.12c.26-.48.53-1.01.74-1.56l-2.3.05c-.36,0-.67-.12-.91-.34-.26-.24-.41-.53-.41-.89v-.79l4.22-.07c.26-1.03.46-2.35.65-3.98l.82.1c.82.1,1.18.58,1.08,1.42-.1.7-.22,1.51-.41,2.42l6.94-.1.1,2.04-4.25.07c.26.5.55,1.01.86,1.51l3.07-.07v-.55l1.08-.02.07,2.59-2.45.05c.86.79,2.09,1.58,3.65,2.38l-.5.84ZM62.11,5.3l-.82-2.5.74-.24c.17-.05.34-.07.48-.07.46,0,.79.31,1.03.96l.48,1.22-1.92.62ZM68.27,22.85c-.89,0-1.94-.05-3.12-.19-.55-.05-.84-.36-.84-.94v-4.82h.79c.46,0,.79.19,1.01.58l2.52-.02.02-1.66-3.29.12c-.31.02-.6-.1-.84-.31-.26-.22-.38-.5-.38-.84v-.79l4.56-.14.02-.67.84.02c.79.02,1.2.38,1.18,1.15l-.1,4.99-4.37.05v1.39c.72.07,1.39.1,2.04.1.98,0,1.92-.07,2.81-.22l.05-.74c.05-.77.5-1.15,1.32-1.15h.14l-.12,1.68c.1-.02.19-.02.26-.02.36,0,.62.22.72.65l.26,1.08c-1.7.48-3.53.72-5.5.72ZM68.27,8.09l-1.32.02c-.19.53-.41,1.06-.62,1.54l2.45-.05c-.38-.7-.55-1.22-.5-1.51ZM72.33,5.57l-1.97-.6.74-2.52.82.19c.58.17.89.53.89,1.1,0,.14-.02.26-.07.43l-.41,1.39Z" fill="#333"/><path d="M132.73,10.69c-.02.17-.05.38-.07.67,1.25,3.17,3.48,5.69,6.67,7.56l-.55.77c-.19.29-.48.43-.84.43-.31,0-.58-.1-.82-.24-2.23-1.37-3.98-3.26-5.26-5.71-.94,2.33-2.38,4.18-4.34,5.57-.29.22-.58.31-.86.31-.34,0-.62-.17-.89-.48l-.55-.65c1.63-1.13,2.88-2.28,3.72-3.46.98-1.34,1.56-2.93,1.75-4.7l-5.33.14c-.34.02-.62-.1-.86-.31-.24-.24-.36-.53-.36-.86l-.02-.82,6.62-.22-.02-5.81h.79c.36,0,.65.12.89.36.24.22.36.5.36.86v4.54l5.59-.19v-.53l1.08-.02.07,2.57-6.77.22ZM132.56,21.69l-1.51-1.92c-.22-.24-.31-.5-.31-.79,0-.38.17-.7.5-.94l.65-.48,2.28,2.86-1.61,1.27Z" fill="#333"/><path d="M152.85,15.63l.07,2.76c.74-.12,1.8-.29,3.14-.5,0-.46-.02-.98-.05-1.63l.74-.02c.84-.02,1.27.36,1.32,1.2.05.86.05,2.28-.05,4.25l-2.04-.02.07-1.75c-2.78.5-4.56.77-5.33.82-.67,0-1.03-.29-1.08-.91l-.1-1.03c.31-.05.74-.1,1.32-.14l-.36-12.1.79-.02c.62-.02,1.03.26,1.22.84l3.74-.07v-.91h.82c.82,0,1.22.41,1.22,1.25v7.8l-5.47.22ZM156.29,9.32l-3.62.07.12,4.18,3.5-.14v-4.1ZM155.69,12.46l-1.2-.05c-.84-.02-1.22-.46-1.2-1.27l.02-.74,2.45.07-.07,1.99ZM153.48,6.05l-.12-3.34.84-.05c.84-.05,1.3.34,1.32,1.15l.07,2.14-2.11.1ZM168,19.9c-.1,0-.19,0-.29-.02l-.84-.22c.14-.41.22-.84.24-1.27h-1.87v-.48c0-.34.12-.62.36-.86.24-.22.53-.34.86-.34h.62c-.29-2.02-1.37-3.48-3.22-4.44.82-1.7,1.32-3.38,1.51-5.06l-2.45.07v15.55h-2.04V4.16h.84c.72,0,1.13.36,1.18,1.06l2.64-.07c0-.29.02-.6.05-.96l.82.05c.82.05,1.2.48,1.18,1.27-.12,2.38-.5,4.42-1.2,6.14,1.9,1.54,2.83,3.55,2.83,6,0,.38-.02.84-.12,1.32-.1.62-.46.94-1.1.94Z" fill="#333"/><path d="M100.5,14.17c-.24.29-.55.43-.94.43-.34,0-.67-.17-1.06-.5l.12,7.78-2.04.07-.12-7.63c-.48.5-.89.77-1.22.77s-.62-.14-.89-.46l-.5-.6c1.03-.86,1.87-1.8,2.52-2.83l-.02-.94-1.01.02c-.34,0-.62-.1-.86-.34-.26-.24-.38-.53-.41-.86l-.02-.82,2.26-.05-.1-3.6.79-.02c.36,0,.65.1.89.34.24.24.38.53.38.86l.07,2.35,2.11-.05.05,2.04-2.11.05.02.84c.74.91,1.61,1.73,2.62,2.47l-.53.67Z" fill="#333"/><path d="M111.64,10.05l2.37-2.47.59.59s.1.11.16.21c.37.56.32,1.06-.15,1.53l-1.53,1.57-1.45-1.43Z" fill="#333"/><path d="M104.42,11.7l-1.54-.98c-.41-.26-.6-.55-.6-.91,0-.24.07-.48.24-.74l.38-.58,2.52,1.61-1.01,1.61Z" fill="#333"/><path d="M111.05,21.79c-.77,0-1.1,0-1.01,0-.43-.02-.74-.12-.94-.34-.17-.19-.26-.41-.26-.67V4.94h.84c.36,0,.65.12.89.38.26.24.38.53.38.89v13.47c1.08,0,2.14-.07,3.14-.26l.1-1.63c.02-.36.17-.65.41-.86s.55-.34.89-.31l.48.02-.14,2.38.31-.07c.1,0,.17-.02.22-.02.48,0,.77.24.89.72l.31,1.15c-2.26.67-4.44,1.01-6.5,1.01Z" fill="#333"/><path d="M106.12,21.1c-.24.43-.62.65-1.18.65-.24,0-.43-.05-.6-.14l-.86-.43c2.51-3.63,2.22-11.7,2.44-15.45l.91.07c.89.07,1.3.53,1.25,1.39-.26,3.24-.18,10.63-1.96,13.91Z" fill="#333"/><path d="M54.45,10.72c-.22.53-.6.77-1.15.77-.17,0-.31-.02-.5-.1-1.25-.46-5.6-4.27-6.61-5.35-1.9,2.47-2.62,3.87-4.67,5.9-.19.12-.43.17-.7.17-.46,0-.82-.19-1.08-.55l-.58-.84c3.5-2.99,4.67-4.75,6.33-7.46l-.1-.07c-.36-.26-.53-.6-.53-1.01,0-.26.07-.5.22-.72l.29-.38,2.66,1.9c-.17.38-.38.82-.65,1.3,2.11,2.33,3.92,4.2,7.42,5.59l-.36.86ZM47.29,16.36c.02,1.03.02,2.06-.02,3.05,1.27-.07.69-.19,2.3-.34,0-.53-.02-1.1-.05-1.73h.89c.77,0,1.18.38,1.2,1.18,0,1.25-.05,2.57-.14,3.98l-2.04-.1.1-1.22c-2.52.24-2.7.38-4.55.43-.82.02-1.25-.36-1.27-1.18l-.05-.86,1.49-.07c.07-.98.1-2.02.07-3.1l-2.93.1c-.82.05-1.22-.36-1.25-1.15l-.02-.84,11.18-.41v-.55l1.08-.02.07,2.57-6.04.26ZM49.35,12.38h-3.38c-.34,0-.62-.14-.86-.38-.24-.24-.36-.53-.36-.86v-.79h4.6v2.04Z" fill="#333"/><path d="M37.13,17.59l-.02,4.73h-2.04l.02-4.63c-.67.05-1.34.05-2.04.02-.77,0-1.15-.38-1.18-1.13l-.02-.96h1.8l1.7-3.38-3.19-1.73,2.83-6,.72.38c.46.24.7.6.7,1.1,0,.19-.05.38-.12.53l-1.51,3.12c.17.1.65.34,1.49.77l.91-1.9.74.36c.46.22.7.58.7,1.08,0,.19-.05.38-.14.55l-2.52,5.09c.67-.02,1.34-.07,2.04-.12-.02-.31-.12-.84-.26-1.58l.67-.07c.79-.1,1.22.19,1.32.86l.36,2.66c-1.13.1-2.14.19-2.95.24Z" fill="#333"/><path d="M31.83,20.9c.24-.6.46-1.42.67-2.5l.58.1c.65.14.96.48.96,1.06,0,.43-.17,1.08-.48,1.94l-1.73-.6Z" fill="#333"/><path d="M38.96,21.41c-.55-.91-.82-1.61-.82-2.06,0-.43.24-.72.74-.89l.65-.22c.29.86.6,1.66.96,2.38l-1.54.79Z" fill="#333"/><path d="M112.83,12.76l2.71,2.09-.52.65s-.1.11-.19.19c-.52.43-1.01.43-1.54.02l-1.73-1.35,1.26-1.6Z" fill="#333"/><path d="M103.93,13.76l-2.71,2.09.52.65s.1.11.19.19c.52.43,1.01.43,1.54.02l1.73-1.35-1.26-1.6Z" fill="#333"/></svg>