<?xml version="1.0" encoding="UTF-8"?><svg id="_レイヤー_3" xmlns="http://www.w3.org/2000/svg" viewBox="0 0 144.6 38"><path d="M30.93,29.09c-.46.49-.96.75-1.42.75-.29,0-.58-.12-.87-.32l-.84-.64c1.74-1.57,2.55-3.36,2.47-5.31-.06-1.02-.43-1.86-1.19-2.52-.81-.75-1.86-1.1-3.13-1.1-.29,0-.61.03-.96.09,0,1.71-.06,3.19-.14,4.47-.09,1.16-.41,2.12-.99,2.81-.64.75-1.51,1.1-2.55,1.07-.93-.03-1.74-.35-2.47-.96-.84-.75-1.28-1.8-1.3-3.07-.03-1.51.46-2.84,1.54-4.03.84-.96,1.94-1.68,3.28-2.23l-.03-3.31-2.26.26c-.99.12-1.54-.32-1.65-1.31l-.12-1.16,4.03-.46-.06-4.24h1.16c.99,0,1.48.49,1.51,1.48v2.47l5.11-.58.29,2.61-5.37.61.03,3.13c.35-.06.73-.09,1.07-.09,1.8,0,3.37.49,4.61,1.54,1.39,1.1,2.12,2.61,2.18,4.5.06,2.26-.58,4.12-1.92,5.54ZM20.6,22.07c-.49.67-.72,1.39-.7,2.21.06,1.07.49,1.62,1.28,1.59.73-.03,1.1-.96,1.16-2.81v-2.29c-.7.26-1.28.7-1.74,1.3ZM33.51,17.98c-.09-1.62-.26-3.66-.55-6.12l.93-.06c1.13-.12,1.74.32,1.86,1.33.15,1.57.26,3.1.35,4.61l-2.58.23Z" fill="#333"/><path d="M60.65,28.34c-1.1.55-2.12.78-3.05.75-1.42-.03-2.52-.55-3.33-1.57-.87-1.07-1.28-2.64-1.28-4.67-.09-2.52-.06-6.85.06-12.94h1.16c1.02.03,1.51.52,1.45,1.51-.17,5.37-.23,9.05-.17,11.08,0,1.39.17,2.38.55,3.02.38.61.93.9,1.68.9,1.77,0,3.66-1.31,5.6-3.89l.64.67c.32.35.49.72.49,1.13,0,.38-.12.75-.38,1.1-.93,1.28-2.06,2.23-3.42,2.9Z" fill="#333"/><path d="M91.68,27.76c-.7.99-1.71,1.71-2.96,2.18-.32.12-.64.17-.96.17-.52,0-.96-.2-1.22-.61l-.61-.96c2.67-.96,4.06-2.26,4.15-3.97.06-1.68-.58-2.52-1.91-2.52-.49,0-.99.14-1.51.41v.49l-2.61.09c-.03-1.94-.03-5.74.03-11.43h1.16c.49,0,.84.17,1.1.46.23.29.35.64.35,1.01l-.03,6.67c.55-.15,1.07-.23,1.54-.23,1.57,0,2.76.55,3.54,1.62.7.93,1.04,2.09.99,3.51,0,1.16-.35,2.18-1.04,3.1ZM91.97,14.1c-1.28-1.51-2.55-2.93-3.77-4.26l.81-.67c.32-.26.67-.41,1.07-.41.44,0,.81.15,1.07.46.46.49,1.42,1.54,2.81,3.13l-2,1.74Z" fill="#333"/><path d="M124.71,16.85l-.06,4.9c0,.29-.12.55-.32.75-.2.23-.46.32-.75.32h-1.57l.03-1.68-2.2.06-.03-.61c0-.38.14-.72.41-1.04.29-.29.64-.46,1.04-.46l.78-.03.03-1.91-5.19.52c0,2.61.09,4.53.29,5.74.2,1.22.58,2.03,1.13,2.46.44.32,1.16.49,2.18.55.96.06,2.29-.12,4-.49l.44,2.67c-1.77.38-3.28.55-4.58.46-2.55-.12-4.26-1.16-5.11-3.1-.67-1.51-.99-4.18-.99-8.03l-2.61.26c-.44.06-.78-.06-1.1-.32-.32-.26-.49-.58-.55-.99l-.12-1.16,4.41-.43.06-5.4h1.13c.99,0,1.48.49,1.48,1.51l-.03,3.63,5.16-.55c0-2.84,0-4.79-.03-5.8l1.16-.03c.99-.03,1.48.46,1.51,1.48,0,.93.03,2.29.03,4.09l3.57-.35.29,2.61-3.89.38Z" fill="#333"/></svg>