<?xml version="1.0" encoding="UTF-8"?><svg id="_レイヤー_1" xmlns="http://www.w3.org/2000/svg" viewBox="0 0 40 38"><path d="M29.93,9.28c-1.75-1.14-3.01-2.96-3.41-5.09-.08-.46-.13-.93-.13-1.42h-5.58v22.36c-.1,2.5-2.16,4.51-4.69,4.51-.78,0-1.53-.2-2.18-.54-1.49-.79-2.52-2.35-2.52-4.15,0-2.59,2.1-4.69,4.69-4.69.48,0,.94.08,1.39.22v-5.7c-.45-.06-.91-.1-1.39-.1-5.66,0-10.27,4.61-10.27,10.27,0,3.47,1.74,6.55,4.39,8.41,1.67,1.17,3.7,1.86,5.89,1.86,5.66,0,10.27-4.61,10.27-10.27v-11.34c2.19,1.57,4.87,2.5,7.77,2.5v-5.58c-1.56,0-3.01-.46-4.23-1.26h0Z" fill="#333"/></svg>