<?xml version="1.0" encoding="UTF-8"?><svg id="_レイヤー_3のコピー" xmlns="http://www.w3.org/2000/svg" viewBox="0 0 183.8 38"><path d="M35.23,14.29c-.43,0-1.04,0-1.84-.03l-2.07,3.83-.49-.29c-.52-.26-.78-.69-.78-1.24,0-.26.06-.49.2-.72l.86-1.58c-1.21,0-3.28.09-6.28.26-.4.03-.75-.09-1.07-.35-.29-.26-.46-.6-.49-1.04l-.06-1.18c4.18-.26,7.77-.35,10.77-.29.92,0,1.35.43,1.32,1.24l-.09,1.38ZM29.88,28.31c-2.48.03-4.38-.75-5.64-2.3-.23-.32-.35-.63-.35-1.01,0-.4.14-.78.4-1.04l.92-.86c1.07,1.76,2.62,2.62,4.61,2.65,1.35.03,2.94-.32,4.75-.95l.69,2.51c-2.25.63-4.03.98-5.39,1.01ZM37.68,13.94l-.78-3.28.58-.09c.12-.06.23-.06.35-.06.46,0,.78.26.92.84l.52,2.22-1.58.37ZM40.76,13.25l-.75-3.25.55-.14c.12-.03.23-.03.35-.03.49,0,.81.29.92.81l.55,2.28-1.61.35Z" fill="#333"/><path d="M66.48,29.38c-.43.4-.86.6-1.33.6-.35,0-.66-.12-.98-.32l-.86-.69c1.15-1.07,1.99-2.1,2.48-3.11.46-.95.66-1.99.66-3.17,0-1.32-.46-2.42-1.38-3.2-2.53,5.21-5.27,7.86-8.24,7.89-.95.03-1.76-.26-2.45-.89-.72-.63-1.12-1.44-1.27-2.42-.06-.37-.09-.75-.09-1.12,0-1.41.43-2.71,1.32-3.86.81-1.01,1.87-1.84,3.23-2.45,0-.89,0-1.93.03-3.11l-2.13.14c-.43.03-.78-.12-1.07-.37-.32-.26-.46-.6-.49-1.01l-.09-1.12,3.8-.26.03-3.57,1.07-.03c.52,0,.92.14,1.18.43.26.29.37.63.37,1.04-.06.52-.09,1.15-.09,1.96l7.29-.43.14,2.59-7.49.46c0,.81-.03,1.67-.03,2.56.55-.09,1.07-.12,1.56-.12.81.03,1.5.12,2.13.29.09-.35.23-.78.4-1.35l1.27.4c.58.17.86.58.86,1.21,0,.26-.06.52-.17.78,1.93,1.38,2.91,3.25,2.91,5.64,0,2.74-.86,4.92-2.59,6.59ZM57.58,23.18c-.03-.66-.06-1.87-.03-3.66-1.44.95-2.07,2.25-1.96,3.83.06,1.04.49,1.58,1.35,1.64.83.03,1.81-.6,2.97-1.87l-2.33.06ZM61.67,18.43c-.52,0-1.04.06-1.56.17,0,1.67,0,3.08.06,4.2.86-1.07,1.73-2.51,2.59-4.29-.35-.06-.72-.09-1.09-.09Z" fill="#333"/><path d="M87.07,23.79c.14.69.35,1.41.58,2.1l-1.41.55c-.17.06-.35.09-.49.09-.46,0-.78-.26-.95-.78-.52-1.76-.83-3.83-.95-6.19-.06-1.18-.09-3.28-.06-6.34h1.07c.55,0,.95.14,1.21.43.23.29.35.63.35,1.04-.06,2.85.03,5.18.26,7l.89-.43c.2-.12.43-.17.66-.17.6,0,1.04.26,1.3.81l.26.52-2.71,1.38ZM97.9,24.71c-.03-3.86-.32-7.46-.92-10.74l1.01-.14c.98-.12,1.55.32,1.79,1.3.52,2.53.78,5.73.75,9.53l-2.62.06Z" fill="#333"/><path d="M126.07,15.9l.2,6.54c0,.26-.09.52-.29.75-.2.2-.43.32-.75.32l-1.55.06-.06-1.96h-2.42v-.55c0-.43.17-.81.46-1.07.29-.29.63-.43,1.01-.43h.89l-.09-3.51-8.35.49c-.4,0-.75-.12-1.04-.35-.32-.26-.52-.63-.55-1.07l-.06-1.12,9.94-.58-.14-4.81,1.09-.03c.98-.03,1.5.43,1.56,1.44l.06,3.25,5.64-.29.17,2.59-5.73.32ZM118.96,29.66c-2.27-1.53-3.43-3.83-3.43-6.94,0-.35.03-.72.03-1.15l1.18.03c.95.03,1.41.55,1.41,1.53-.03,1.01.14,1.81.52,2.48.35.69.98,1.35,1.93,1.99l-1.64,2.07Z" fill="#333"/><path d="M160.69,23.88c-1.24,1.44-2.91,2.53-5.04,3.28-.29.09-.55.14-.78.14-.55,0-1.01-.32-1.32-.92l-.4-.75c2.53-.98,4.32-2.02,5.39-3.08.89-.92,1.38-2.02,1.41-3.25.06-2.19-1.27-3.28-3.95-3.28-1.79,0-4.92.58-9.45,1.76-.17.03-.35.03-.49.03-.72,0-1.12-.35-1.27-1.04l-.29-1.24c5.18-1.32,9.07-1.99,11.61-1.99s4.26.72,5.36,2.16c.75,1.04,1.12,2.28,1.09,3.74-.06,1.58-.69,3.08-1.87,4.43Z" fill="#333"/></svg>