<?xml version="1.0" encoding="UTF-8"?><svg id="_レイヤー_3" xmlns="http://www.w3.org/2000/svg" viewBox="0 0 150.28 25.18"><path d="M7.64,20.15l-2.45-2.4.46-.5c.17-.17.41-.26.7-.26.38,0,.72.12.98.38.86-.82,1.68-1.78,2.45-2.93l.7.55c.34.26.5.58.5.98,0,.22-.07.46-.24.7-1.18,1.56-2.21,2.71-3.1,3.48ZM8.29,13.67l-2.16-1.99.55-.6c.22-.26.53-.41.89-.41.31,0,.6.12.84.34l1.27,1.15-1.39,1.51ZM8.5,9.23l-2.3-1.92.53-.62c.26-.34.58-.5.94-.5.29,0,.55.12.79.31l1.32,1.15-1.27,1.58ZM23.57,17.25v5.09l-9.87-.1c.12-1.25.24-2.83.36-4.8l-.96.02c-.34.02-.62-.1-.86-.34-.26-.26-.41-.55-.41-.89v-.79l2.35-.05c.12-2.42.22-4.2.24-5.33h.82c.62,0,1.01.26,1.13.82l5.14-.14v-.7h.82c.82,0,1.25.41,1.25,1.2v3.96l1.2-.02v-.53l1.06-.02.05,2.57-2.3.05ZM15.32,7.6c-.07.36-.22.84-.41,1.42-.24.5-.6.77-1.08.77-.12,0-.24,0-.38-.02l-.84-.29c.72-1.92,1.13-3.67,1.2-5.3-.6-.22-.86-.65-.77-1.27l.07-.5,2.81.38c-.05,1.01-.12,1.92-.24,2.78l7.87-.14-.02-.53,1.1-.02.05,2.57-9.36.17ZM21.51,17.3l-1.66.02c-.12.65-.24,1.06-.31,1.22-.22.43-.53.65-.96.65-.17,0-.36-.02-.53-.05l-.79-.22c.17-.38.34-.89.5-1.56l-1.66.02c-.05,1.08-.12,2.04-.19,2.9h5.59v-3ZM21.51,12.78l-5.16.14c-.02.79-.07,1.61-.12,2.42l1.87-.05c.12-.77.17-1.39.14-1.87l.96.05c.7.02,1.03.38,1.01,1.08,0,.26-.02.5-.05.72l1.34-.05v-2.45Z" fill="#333"/><path d="M35.62,7c-.07,3.94-.53,6.89-1.34,8.83-.22.5-.62.77-1.2.77-.14,0-.29-.02-.43-.07l-.79-.26c.74-1.92,1.2-4.01,1.42-6.19.1-1.2.17-3.22.19-6.07h.86c.72,0,1.15.31,1.27.96l4.97-.12-.17-2.4.82-.07c.36-.02.67.07.91.29.24.22.38.5.41.86l.05,1.27,5.14-.12-.02-.53h1.1l.02,2.57-13.2.29ZM38.93,11.99c-.19.1-.38.14-.6.14-.53,0-.89-.24-1.13-.72l-.41-.82c1.78-.72,3.05-1.37,3.79-1.92-.05-.14-.07-.29-.07-.43,0-.36.14-.65.48-.86l.43-.24,1.49,2.3c-1.27,1.03-2.62,1.87-3.98,2.54ZM48.17,18.28c.07.05.14.14.26.24.24.19.36.43.36.74,0,.24-.07.43-.22.6l-.67.77c-1.82-1.32-3.07-3.17-3.77-5.59l-3.89.48.1,2.04c.46-.1,1.15-.29,2.09-.5l.14.82c.02.07.02.17.02.29,0,.62-.31,1.01-.98,1.15-2.04.46-3.24.67-3.55.67-.5,0-.79-.29-.89-.82l-.17-.96c.41-.07.84-.14,1.3-.22l-.22-5.4.82-.02c.7-.02,1.13.31,1.25.98l3.58-.43c-.12-.77-.19-1.56-.22-2.38l.62-.05c.82-.07,1.25.31,1.32,1.1,0,.14.05.5.12,1.08l1.9-.24-.07-.48,1.03-.14.29,2.42-2.71.36c.26.84.62,1.58,1.06,2.23l.41-.41c.24-.24.53-.38.89-.38.31,0,.58.12.84.34l.26.34-1.3,1.37ZM46.11,22.99h-6.55c-.34,0-.62-.12-.86-.36-.24-.26-.36-.53-.36-.86v-.82h6.7v-.55h1.08v2.59Z" fill="#333"/><path d="M70.45,21.81c-.36.34-.72.5-1.1.5-.29,0-.55-.1-.82-.26l-.72-.58c.96-.89,1.66-1.75,2.06-2.59.38-.79.55-1.66.55-2.64,0-1.1-.38-2.02-1.15-2.66-2.11,4.34-4.39,6.55-6.86,6.58-.79.02-1.46-.22-2.04-.74-.6-.53-.94-1.2-1.06-2.02-.05-.31-.07-.62-.07-.94,0-1.18.36-2.26,1.1-3.22.67-.84,1.56-1.54,2.69-2.04,0-.74,0-1.61.02-2.59l-1.78.12c-.36.02-.65-.1-.89-.31-.26-.22-.38-.5-.41-.84l-.07-.94,3.17-.22.02-2.98.89-.02c.43,0,.77.12.98.36.22.24.31.53.31.86-.05.43-.07.96-.07,1.63l6.07-.36.12,2.16-6.24.38c0,.67-.02,1.39-.02,2.14.46-.07.89-.1,1.3-.1.67.02,1.25.1,1.78.24.07-.29.19-.65.34-1.13l1.06.34c.48.14.72.48.72,1.01,0,.22-.05.43-.14.65,1.61,1.15,2.42,2.71,2.42,4.7,0,2.28-.72,4.1-2.16,5.5ZM63.03,16.65c-.02-.55-.05-1.56-.02-3.05-1.2.79-1.73,1.87-1.63,3.19.05.86.41,1.32,1.13,1.37.7.02,1.51-.5,2.47-1.56l-1.94.05ZM66.44,12.69c-.43,0-.86.05-1.3.14,0,1.39,0,2.57.05,3.5.72-.89,1.44-2.09,2.16-3.58-.29-.05-.6-.07-.91-.07Z" fill="#333"/><path d="M93.15,20.46c-.79.86-1.82,1.34-3.1,1.42-1.13.05-2.06-.12-2.76-.55-.89-.5-1.32-1.32-1.32-2.42,0-.72.24-1.32.77-1.78.5-.48,1.1-.72,1.78-.77.82-.02,1.46.24,1.94.79.5.53.74,1.25.77,2.09.7-.53,1.06-1.34,1.06-2.45,0-.82-.24-1.46-.7-1.97-.5-.58-1.25-.84-2.21-.82-.53,0-1.18.12-1.9.38l-1.25,1.75-1.8-1.15,4.82-7.06-2.98.24c-.31.05-.6-.05-.86-.24-.26-.22-.41-.5-.43-.86l-.1-.94,5.83-.53.62-.96.77.46c.43.26.65.62.65,1.08,0,.26-.07.5-.24.74l-3.29,4.92c1.66-.07,2.95.41,3.89,1.42.94,1.01,1.37,2.28,1.3,3.84-.05,1.37-.48,2.5-1.27,3.36ZM89.17,18.71c-.17-.31-.43-.48-.79-.48-.43.02-.65.24-.62.65.02.67.55.98,1.61.98.05-.43-.02-.82-.19-1.15Z" fill="#333"/><path d="M117.73,21.81c-.36.34-.72.5-1.1.5-.29,0-.55-.1-.82-.26l-.72-.58c.96-.89,1.66-1.75,2.06-2.59.38-.79.55-1.66.55-2.64,0-1.1-.38-2.02-1.15-2.66-2.11,4.34-4.39,6.55-6.86,6.58-.79.02-1.46-.22-2.04-.74-.6-.53-.94-1.2-1.06-2.02-.05-.31-.07-.62-.07-.94,0-1.18.36-2.26,1.1-3.22.67-.84,1.56-1.54,2.69-2.04,0-.74,0-1.61.02-2.59l-1.78.12c-.36.02-.65-.1-.89-.31-.26-.22-.38-.5-.41-.84l-.07-.94,3.17-.22.02-2.98.89-.02c.43,0,.77.12.98.36.22.24.31.53.31.86-.05.43-.07.96-.07,1.63l6.07-.36.12,2.16-6.24.38c0,.67-.02,1.39-.02,2.14.46-.07.89-.1,1.3-.1.67.02,1.25.1,1.78.24.07-.29.19-.65.34-1.13l1.06.34c.48.14.72.48.72,1.01,0,.22-.05.43-.14.65,1.61,1.15,2.42,2.71,2.42,4.7,0,2.28-.72,4.1-2.16,5.5ZM110.31,16.65c-.02-.55-.05-1.56-.02-3.05-1.2.79-1.73,1.87-1.63,3.19.05.86.41,1.32,1.13,1.37.7.02,1.51-.5,2.47-1.56l-1.94.05ZM113.72,12.69c-.43,0-.86.05-1.3.14,0,1.39,0,2.57.05,3.5.72-.89,1.44-2.09,2.16-3.58-.29-.05-.6-.07-.91-.07Z" fill="#333"/><path d="M140.91,20.46c-.79.86-1.82,1.34-3.1,1.42-1.13.05-2.06-.12-2.76-.55-.89-.5-1.32-1.32-1.32-2.42,0-.72.24-1.32.77-1.78.5-.48,1.1-.72,1.78-.77.82-.02,1.46.24,1.94.79.5.53.74,1.25.77,2.09.7-.53,1.06-1.34,1.06-2.45,0-.82-.24-1.46-.7-1.97-.5-.58-1.25-.84-2.21-.82-.53,0-1.18.12-1.9.38l-1.25,1.75-1.8-1.15,4.82-7.06-2.98.24c-.31.05-.6-.05-.86-.24-.26-.22-.41-.5-.43-.86l-.1-.94,5.83-.53.62-.96.77.46c.43.26.65.62.65,1.08,0,.26-.07.5-.24.74l-3.29,4.92c1.66-.07,2.95.41,3.89,1.42.94,1.01,1.37,2.28,1.3,3.84-.05,1.37-.48,2.5-1.27,3.36ZM136.93,18.71c-.17-.31-.43-.48-.79-.48-.43.02-.65.24-.62.65.02.67.55.98,1.61.98.05-.43-.02-.82-.19-1.15Z" fill="#333"/></svg>