<?xml version="1.0" encoding="UTF-8"?><svg id="_レイヤー_3" xmlns="http://www.w3.org/2000/svg" viewBox="0 0 17.44 61.57"><path d="M11.83,18.23c-.62.56-1.37.84-2.25.84-1.17.02-2.03-.36-2.61-1.14-.64-.92-.95-2.38-.91-4.41,0-.34,0-.77.04-1.29l-.93.11c-.8.09-1.22-.26-1.33-1.03l-.11-.77,2.43-.28c.04-.69.07-1.41.11-2.14h-1.72c-.75,0-1.13-.36-1.13-1.09v-.84l2.98-.02.22-3.47.84.04c.79.04,1.15.43,1.1,1.16-.04.51-.11,1.26-.2,2.25h3.03l.02,1.95h-3.18c0,.19-.04.83-.13,1.95l2.76-.3.24,1.91-3.09.34c-.04.98-.07,1.54-.07,1.65,0,1.18.13,2.04.35,2.57.24.56.66.86,1.26.88,1.13,0,1.79-1.01,2.01-3.02l.51.15c.69.17,1.02.6.95,1.26-.11,1.2-.51,2.1-1.21,2.74Z" fill="#fff"/><path d="M10.15,40.01c-.88-1.59-2.85-4.37-5.94-8.38,2.63-3.32,4.42-5.78,5.39-7.43l.82.47c.33.19.51.47.51.84,0,.24-.07.47-.22.73-.75,1.11-2.1,2.91-4.09,5.42,2.47,3.11,4.2,5.55,5.17,7.33l-1.64,1.03Z" fill="#fff"/><path d="M10.83,58.03c-.82.41-1.61.58-2.32.56-1.06-.02-1.9-.41-2.5-1.16-.66-.79-.99-1.95-.99-3.45-.09-1.86-.07-5.06.07-9.55h.86c.75.02,1.13.39,1.11,1.11-.13,3.96-.16,6.68-.11,8.18-.02,1.03.11,1.78.4,2.23.29.45.71.67,1.26.67,1.37,0,2.81-.96,4.29-2.87l.49.49c.24.26.35.54.35.83,0,.28-.09.56-.26.81-.71.94-1.59,1.65-2.63,2.14ZM10.5,49.29l-.6-2.44.44-.11c.09,0,.18-.02.26-.02.38,0,.6.21.71.62l.4,1.65-1.22.3ZM12.86,48.75l-.57-2.42.4-.11c.11-.02.2-.02.29-.02.38,0,.62.21.71.6l.4,1.69-1.21.26Z" fill="#fff"/></svg>