<?xml version="1.0" encoding="UTF-8"?><svg id="_レイヤー_3のコピー" xmlns="http://www.w3.org/2000/svg" viewBox="0 0 207.06 38"><path d="M31.03,28.97c-.46.49-.95.75-1.41.75-.29,0-.58-.12-.86-.32l-.83-.63c1.73-1.56,2.53-3.34,2.45-5.27-.06-1.01-.43-1.84-1.18-2.51-.81-.75-1.84-1.09-3.11-1.09-.29,0-.61.03-.95.09,0,1.7-.06,3.17-.14,4.43-.09,1.15-.4,2.1-.98,2.79-.63.75-1.5,1.09-2.53,1.07-.92-.03-1.73-.35-2.45-.95-.83-.75-1.27-1.79-1.3-3.05-.03-1.5.46-2.82,1.53-4,.83-.95,1.93-1.67,3.25-2.22l-.03-3.28-2.25.26c-.98.12-1.53-.32-1.64-1.3l-.12-1.15,4-.46-.06-4.2h1.15c.98,0,1.47.49,1.5,1.47v2.45l5.07-.58.29,2.59-5.33.6.03,3.11c.35-.06.72-.09,1.07-.09,1.79,0,3.34.49,4.58,1.53,1.38,1.09,2.1,2.59,2.16,4.46.06,2.25-.58,4.09-1.9,5.5ZM20.78,22c-.49.66-.72,1.38-.69,2.19.06,1.07.49,1.61,1.27,1.58.72-.03,1.09-.95,1.15-2.79v-2.28c-.69.26-1.27.69-1.73,1.3ZM33.59,17.94c-.09-1.61-.26-3.63-.55-6.08l.92-.06c1.12-.12,1.73.32,1.84,1.32.14,1.55.26,3.08.35,4.58l-2.56.23Z" fill="#333"/><path d="M58.45,28.83c-1.96.03-3.48-.4-4.55-1.27s-1.61-2.07-1.61-3.69c.03-1.32.72-2.82,2.13-4.46l-2.1-9.76,1.12-.23c.14-.03.26-.03.4-.03.72,0,1.18.37,1.35,1.18l1.41,6.65c1.24-1.09,2.77-2.3,4.64-3.63l.78.89c.2.32.32.6.32.92,0,.43-.2.81-.6,1.12-2.42,1.73-4.15,3.11-5.15,4.15-1.21,1.21-1.81,2.3-1.79,3.2,0,1.64,1.24,2.45,3.69,2.42,1.35,0,2.85-.32,4.52-.89l.69,2.51c-1.99.6-3.71.92-5.24.92Z" fill="#333"/><path d="M83.16,23.79c.14.69.35,1.41.58,2.1l-1.41.55c-.17.06-.35.09-.49.09-.46,0-.78-.26-.95-.78-.52-1.76-.83-3.83-.95-6.19-.06-1.18-.09-3.28-.06-6.34h1.07c.55,0,.95.14,1.21.43.23.29.35.63.35,1.04-.06,2.85.03,5.18.26,7l.89-.43c.2-.12.43-.17.66-.17.6,0,1.04.26,1.3.81l.26.52-2.71,1.38ZM93.98,24.71c-.03-3.86-.32-7.46-.92-10.74l1.01-.14c.98-.12,1.55.32,1.79,1.3.52,2.53.78,5.73.75,9.53l-2.62.06Z" fill="#333"/><path d="M124.48,29.38c-.43.4-.86.6-1.33.6-.35,0-.66-.12-.98-.32l-.86-.69c1.15-1.07,1.99-2.1,2.48-3.11.46-.95.66-1.99.66-3.17,0-1.32-.46-2.42-1.38-3.2-2.53,5.21-5.27,7.86-8.24,7.89-.95.03-1.76-.26-2.45-.89-.72-.63-1.12-1.44-1.27-2.42-.06-.37-.09-.75-.09-1.12,0-1.41.43-2.71,1.32-3.86.81-1.01,1.87-1.84,3.23-2.45,0-.89,0-1.93.03-3.11l-2.13.14c-.43.03-.78-.12-1.07-.37-.32-.26-.46-.6-.49-1.01l-.09-1.12,3.8-.26.03-3.57,1.07-.03c.52,0,.92.14,1.18.43.26.29.37.63.37,1.04-.06.52-.09,1.15-.09,1.96l7.29-.43.14,2.59-7.49.46c0,.81-.03,1.67-.03,2.56.55-.09,1.07-.12,1.56-.12.81.03,1.5.12,2.13.29.09-.35.23-.78.4-1.35l1.27.4c.58.17.86.58.86,1.21,0,.26-.06.52-.17.78,1.93,1.38,2.91,3.25,2.91,5.64,0,2.74-.86,4.92-2.59,6.59ZM115.59,23.18c-.03-.66-.06-1.87-.03-3.66-1.44.95-2.07,2.25-1.96,3.83.06,1.04.49,1.58,1.35,1.64.83.03,1.81-.6,2.97-1.87l-2.33.06ZM119.67,18.43c-.52,0-1.04.06-1.56.17,0,1.67,0,3.08.06,4.2.86-1.07,1.73-2.51,2.59-4.29-.35-.06-.72-.09-1.09-.09Z" fill="#333"/><path d="M157.4,27.85c-.32.32-.69.46-1.12.46s-.81-.14-1.12-.4l-.72-.58c1.87-1.84,2.79-3.69,2.79-5.5,0-2.25-1.01-3.37-3-3.34-1.55.03-3.57.72-6.02,2.02v9.01h-2.59v-7.57c-.49.35-1.24.81-2.25,1.44-.29.17-.58.26-.83.26-.43,0-.75-.23-1.01-.66l-.52-1.21c1.01-.55,1.87-1.07,2.56-1.56l2.04-3.05v-1.53l-1.73.4c-.12.03-.2.03-.32.03-.78,0-1.24-.4-1.38-1.21l-.2-1.12,3.63-.75v-5.13h1.15c.98,0,1.44.49,1.44,1.5v3.17l2.33-.46.37,2.51-1.3.26-1.41,1.99v.92c2.39-1.15,4.38-1.73,5.93-1.76,2.04-.09,3.54.6,4.55,1.99.75,1.07,1.12,2.3,1.12,3.77,0,2.45-.81,4.49-2.42,6.11Z" fill="#333"/><path d="M186.09,16.82l-.06,4.87c0,.29-.12.55-.32.75-.2.23-.46.32-.75.32h-1.55l.03-1.67-2.19.06-.03-.6c0-.37.14-.72.4-1.04.29-.29.63-.46,1.04-.46l.78-.03.03-1.9-5.15.52c0,2.59.09,4.49.29,5.7.2,1.21.58,2.02,1.12,2.45.43.32,1.15.49,2.16.55.95.06,2.28-.12,3.97-.49l.43,2.65c-1.76.37-3.25.55-4.55.46-2.53-.12-4.23-1.15-5.07-3.08-.66-1.5-.98-4.15-.98-7.98l-2.59.26c-.43.06-.78-.06-1.09-.32-.32-.26-.49-.58-.55-.98l-.12-1.15,4.38-.43.06-5.36h1.12c.98,0,1.47.49,1.47,1.5l-.03,3.6,5.13-.55c0-2.82,0-4.75-.03-5.76l1.15-.03c.98-.03,1.47.46,1.5,1.47,0,.92.03,2.28.03,4.06l3.54-.35.29,2.59-3.86.37Z" fill="#333"/></svg>