<?xml version="1.0" encoding="UTF-8"?><svg id="_レイヤー_3" xmlns="http://www.w3.org/2000/svg" viewBox="0 0 189.51 25.18"><path d="M19.41,13.6c-.22.34-.55.53-.96.53-.24,0-.48-.07-.7-.22l-.79-.53c1.18-1.66,1.97-3.31,2.38-4.97l-10.27.34c-.84.02-1.25-.36-1.27-1.2l-.02-.94,12-.41c.05-.36.1-.72.14-1.1l.89.07c.89.1,1.25.55,1.13,1.37-.43,2.86-1.25,5.21-2.52,7.06ZM15.02,16.91c-.26,1.56-.6,2.78-1.01,3.7-.22.46-.6.67-1.1.67-.19,0-.38-.05-.6-.12l-.84-.36c1.13-2.23,1.68-4.75,1.68-7.58,0-.43-.02-.89-.02-1.37l.72-.02c.94-.02,1.42.38,1.46,1.25.02,1.13-.07,2.42-.29,3.84Z" fill="#333"/><path d="M37.53,22.02c-.29.36-.65.53-1.06.53-.26,0-.53-.07-.77-.26l-.74-.53c1.66-1.99,2.88-3.98,3.67-5.98.62-1.51,1.06-3.29,1.34-5.33l-5.66.41c-.34.91-.7,1.7-1.06,2.38-.24.46-.62.67-1.1.67-.19,0-.41-.07-.67-.19l-.77-.41c1.42-2.38,2.33-5.06,2.78-8.07-.29-.07-.53-.24-.7-.5-.17-.26-.24-.55-.19-.86l.07-.53,3.22.6c-.22,1.7-.5,3.26-.86,4.7l5.23-.38c.02-.41.05-.79.05-1.15l.98.02c.79,0,1.15.46,1.1,1.32-.34,5.47-1.97,9.98-4.87,13.56Z" fill="#333"/><path d="M64.44,17.75c-.5-.17-1.3-.41-2.38-.74-.91,2.23-1.87,3.91-2.83,5.06-.24.29-.55.43-.91.43-.29,0-.55-.07-.79-.26l-.79-.53c1.56-1.85,2.67-3.65,3.31-5.45l-2.45-.77c-.58-.19-.86-.58-.86-1.15,0-.12.02-.24.05-.38l.31-.89c1.1.36,2.33.77,3.67,1.22.41-1.03.72-2.42.98-4.2l-5.69.1c-.31.91-.67,1.73-1.06,2.45-.24.46-.58.67-1.08.67-.24,0-.48-.05-.67-.17l-.74-.46c1.34-2.4,2.26-5.04,2.69-7.97-.31-.07-.58-.24-.77-.53-.19-.26-.26-.58-.19-.89l.1-.46,3.22.58c-.24,1.8-.5,3.34-.82,4.61l5.26-.12c.02-.38.05-.74.07-1.13l.89.02c.86.02,1.27.46,1.22,1.32-.14,2.4-.58,4.68-1.27,6.84,1.01.31,1.75.58,2.23.74l-.7,2.04Z" fill="#333"/><path d="M79.15,11.85c-1.25-1.1-2.47-2.14-3.72-3.12l.62-.74c.22-.31.53-.46.91-.46.29,0,.55.1.79.29.79.65,1.75,1.44,2.83,2.38l-1.44,1.66ZM79.01,21.38l-2.3-2.93.6-.53c.24-.22.53-.31.84-.31.38,0,.7.14.94.46l.26.34c3.62-2.52,6.5-5.78,8.59-9.82l.82.5c.43.26.65.6.65,1.03,0,.22-.05.46-.19.7-2.14,4.15-5.54,7.68-10.2,10.56Z" fill="#333"/><path d="M104.23,13.98v4.73c1.87.1,3.82-.17,5.86-.77l.53,2.06c-1.63.6-3.43.91-5.38.91-1.13,0-1.82-.05-2.11-.1-.74-.19-1.13-.67-1.13-1.46l.02-5.28-3.07.1c-.36.02-.65-.07-.91-.31-.24-.22-.38-.5-.38-.84l-.02-.94,4.39-.19.02-3.7-2.47.02c-.34,0-.62-.1-.86-.34s-.36-.53-.38-.86l-.02-.94,12.19-.14.02,2.18-6.29.05v3.62l6.58-.24.1,2.16-6.67.26Z" fill="#333"/><path d="M129.57,22.02c-.29.36-.65.53-1.06.53-.26,0-.53-.07-.77-.26l-.74-.53c1.66-1.99,2.88-3.98,3.67-5.98.62-1.51,1.06-3.29,1.34-5.33l-5.66.41c-.34.91-.7,1.7-1.06,2.38-.24.46-.62.67-1.1.67-.19,0-.41-.07-.67-.19l-.77-.41c1.42-2.38,2.33-5.06,2.78-8.07-.29-.07-.53-.24-.7-.5-.17-.26-.24-.55-.19-.86l.07-.53,3.22.6c-.22,1.7-.5,3.26-.86,4.7l5.23-.38c.02-.41.05-.79.05-1.15l.98.02c.79,0,1.15.46,1.1,1.32-.34,5.47-1.97,9.98-4.87,13.56Z" fill="#333"/><path d="M156.48,17.75c-.5-.17-1.3-.41-2.38-.74-.91,2.23-1.87,3.91-2.83,5.06-.24.29-.55.43-.91.43-.29,0-.55-.07-.79-.26l-.79-.53c1.56-1.85,2.67-3.65,3.31-5.45l-2.45-.77c-.58-.19-.86-.58-.86-1.15,0-.12.02-.24.05-.38l.31-.89c1.1.36,2.33.77,3.67,1.22.41-1.03.72-2.42.98-4.2l-5.69.1c-.31.91-.67,1.73-1.06,2.45-.24.46-.58.67-1.08.67-.24,0-.48-.05-.67-.17l-.74-.46c1.34-2.4,2.26-5.04,2.69-7.97-.31-.07-.58-.24-.77-.53-.19-.26-.26-.58-.19-.89l.1-.46,3.22.58c-.24,1.8-.5,3.34-.82,4.61l5.26-.12c.02-.38.05-.74.07-1.13l.89.02c.86.02,1.27.46,1.22,1.32-.14,2.4-.58,4.68-1.27,6.84,1.01.31,1.75.58,2.23.74l-.7,2.04Z" fill="#333"/><path d="M171.67,11.85c-1.25-1.1-2.47-2.14-3.72-3.12l.62-.74c.22-.31.53-.46.91-.46.29,0,.55.1.79.29.79.65,1.75,1.44,2.83,2.38l-1.44,1.66ZM171.53,21.38l-2.3-2.93.6-.53c.24-.22.53-.31.84-.31.38,0,.7.14.94.46l.26.34c3.62-2.52,6.5-5.78,8.59-9.82l.82.5c.43.26.65.6.65,1.03,0,.22-.05.46-.19.7-2.14,4.15-5.54,7.68-10.2,10.56Z" fill="#333"/></svg>