<?xml version="1.0" encoding="UTF-8"?><svg id="_レイヤー_3のコピー" xmlns="http://www.w3.org/2000/svg" viewBox="0 0 215.44 38"><path d="M36.54,16.84l-.06,4.87c0,.29-.12.55-.32.75-.2.23-.46.32-.75.32h-1.55l.03-1.67-2.19.06-.03-.6c0-.37.14-.72.4-1.04.29-.29.63-.46,1.04-.46l.78-.03.03-1.9-5.15.52c0,2.59.09,4.49.29,5.7.2,1.21.58,2.02,1.12,2.45.43.32,1.15.49,2.16.55.95.06,2.28-.12,3.97-.49l.43,2.65c-1.76.37-3.25.55-4.55.46-2.53-.12-4.23-1.15-5.07-3.08-.66-1.5-.98-4.15-.98-7.98l-2.59.26c-.43.06-.78-.06-1.09-.32-.32-.26-.49-.58-.55-.98l-.12-1.15,4.38-.43.06-5.36h1.12c.98,0,1.47.49,1.47,1.5l-.03,3.6,5.13-.55c0-2.82,0-4.75-.03-5.76l1.15-.03c.98-.03,1.47.46,1.5,1.47,0,.92.03,2.28.03,4.06l3.54-.35.29,2.59-3.86.37Z" fill="#333"/><path d="M57.45,23.81c.14.69.35,1.41.58,2.1l-1.41.55c-.17.06-.35.09-.49.09-.46,0-.78-.26-.95-.78-.52-1.76-.83-3.83-.95-6.19-.06-1.18-.09-3.28-.06-6.34h1.07c.55,0,.95.14,1.21.43.23.29.35.63.35,1.04-.06,2.85.03,5.18.26,7l.89-.43c.2-.12.43-.17.66-.17.6,0,1.04.26,1.3.81l.26.52-2.71,1.38ZM68.28,24.73c-.03-3.86-.32-7.46-.92-10.74l1.01-.14c.98-.12,1.55.32,1.79,1.3.52,2.53.78,5.73.75,9.53l-2.62.06Z" fill="#333"/><path d="M97.94,16.42l.2,6.54c0,.26-.09.52-.29.75-.2.2-.43.32-.75.32l-1.55.06-.06-1.96h-2.42v-.55c0-.43.17-.81.46-1.07.29-.29.63-.43,1.01-.43h.89l-.09-3.51-8.35.49c-.4,0-.75-.12-1.04-.35-.32-.26-.52-.63-.55-1.07l-.06-1.12,9.94-.58-.14-4.81,1.09-.03c.98-.03,1.5.43,1.56,1.44l.06,3.25,5.64-.29.17,2.59-5.73.32ZM90.83,30.19c-2.27-1.53-3.43-3.83-3.43-6.94,0-.35.03-.72.03-1.15l1.18.03c.95.03,1.41.55,1.41,1.53-.03,1.01.14,1.81.52,2.48.35.69.98,1.35,1.93,1.99l-1.64,2.07Z" fill="#333"/><path d="M125.39,29.95c-1.15-2.13-3.72-5.87-7.75-11.26,3.43-4.46,5.76-7.78,7.03-9.99l1.07.63c.43.26.66.63.66,1.12,0,.32-.09.63-.29.98-.98,1.5-2.74,3.92-5.33,7.29,3.23,4.18,5.47,7.46,6.74,9.85l-2.13,1.38Z" fill="#333"/><path d="M144.95,27.53l-2.42-.98c.23-.63.92-2.48,2.04-5.5l1.07.37c.66.26.98.72.98,1.35,0,.2-.03.37-.12.58-.49,1.38-1.01,2.79-1.55,4.18ZM156.09,14.48c-.32-.23-.66-.46-1.04-.69l-1.79,2.42-.46-.35c-.43-.32-.63-.69-.63-1.12,0-.32.12-.63.32-.92l.86-1.12c-1.18-.75-2.19-1.35-3.05-1.81-.55-.32-.83-.72-.83-1.27,0-.26.09-.52.23-.81l.55-1.01c1.12.63,2.27,1.27,3.4,1.9,1.01.55,2.02,1.18,3.05,1.87.32.23.46.52.46.89,0,.26-.06.52-.2.72l-.86,1.3ZM153.56,29.37c-.09,0-.2,0-.29-.03l-1.32-.37c.2-.75.35-1.44.4-2.04h-2.28v-.55c0-.37.14-.72.46-1.01.29-.29.63-.43,1.04-.43h.89c-.12-1.41-.72-2.71-1.81-3.83-.29-.29-.43-.58-.43-.89s.12-.58.35-.84l.89-.92c2.42,1.84,3.63,4.18,3.63,6.94,0,.89-.12,1.87-.35,2.97-.17.66-.55,1.01-1.18,1.01ZM160.67,27.07c-.66-1.7-1.47-3.57-2.42-5.56l1.01-.46c.23-.12.49-.17.72-.17.6,0,1.04.29,1.3.86.49,1.04,1.09,2.48,1.84,4.32l-2.45,1.01ZM159.23,17.68l-.78-3.28.58-.14c.12,0,.23-.03.35-.03.49,0,.78.29.92.86l.52,2.22-1.58.37ZM162.31,16.96l-.75-3.25.55-.12c.12-.03.23-.06.35-.06.49,0,.81.29.92.84l.55,2.25-1.61.35Z" fill="#333"/><path d="M190.68,23.9c-1.24,1.44-2.91,2.53-5.04,3.28-.29.09-.55.14-.78.14-.55,0-1.01-.32-1.32-.92l-.4-.75c2.53-.98,4.32-2.02,5.39-3.08.89-.92,1.38-2.02,1.41-3.25.06-2.19-1.27-3.28-3.95-3.28-1.79,0-4.92.58-9.45,1.76-.17.03-.35.03-.49.03-.72,0-1.12-.35-1.27-1.04l-.29-1.24c5.18-1.32,9.07-1.99,11.61-1.99s4.26.72,5.36,2.16c.75,1.04,1.12,2.28,1.1,3.74-.06,1.58-.69,3.08-1.87,4.43Z" fill="#333"/></svg>